<mxfile host="65bd71144e">
    <diagram name="Page-1" id="Sqz6182Rmw18QNp8aNnn">
        <mxGraphModel dx="1065" dy="769" grid="1" gridSize="10" guides="1" tooltips="1" connect="1" arrows="1" fold="1" page="1" pageScale="1" pageWidth="850" pageHeight="1100" math="0" shadow="0">
            <root>
                <mxCell id="0"/>
                <mxCell id="1" parent="0"/>
                <mxCell id="IyA25SHJrgqSfekTLc_w-2" value="&lt;div&gt;&lt;br&gt;&lt;/div&gt;&lt;div&gt;&lt;br&gt;&lt;/div&gt;&lt;div&gt;&lt;br&gt;&lt;/div&gt;&lt;div&gt;&lt;br&gt;&lt;/div&gt;&lt;div&gt;&lt;br&gt;&lt;/div&gt;&lt;div&gt;&lt;br&gt;&lt;/div&gt;&lt;div&gt;Proxy Server&lt;br&gt;&lt;/div&gt;" style="rounded=1;whiteSpace=wrap;html=1;" parent="1" vertex="1">
                    <mxGeometry x="400" y="430" width="260" height="120" as="geometry"/>
                </mxCell>
                <mxCell id="IyA25SHJrgqSfekTLc_w-30" style="edgeStyle=orthogonalEdgeStyle;rounded=0;orthogonalLoop=1;jettySize=auto;html=1;entryX=1;entryY=0.5;entryDx=0;entryDy=0;" parent="1" source="IyA25SHJrgqSfekTLc_w-3" target="IyA25SHJrgqSfekTLc_w-11" edge="1">
                    <mxGeometry relative="1" as="geometry"/>
                </mxCell>
                <mxCell id="IyA25SHJrgqSfekTLc_w-3" value="&lt;div&gt;MITM&lt;/div&gt;&lt;div&gt;Proxy&lt;br&gt;&lt;/div&gt;" style="ellipse;whiteSpace=wrap;html=1;aspect=fixed;" parent="1" vertex="1">
                    <mxGeometry x="420" y="445" width="80" height="80" as="geometry"/>
                </mxCell>
                <mxCell id="IyA25SHJrgqSfekTLc_w-25" style="edgeStyle=orthogonalEdgeStyle;rounded=0;orthogonalLoop=1;jettySize=auto;html=1;" parent="1" source="IyA25SHJrgqSfekTLc_w-18" edge="1">
                    <mxGeometry relative="1" as="geometry">
                        <mxPoint x="600" y="250" as="targetPoint"/>
                    </mxGeometry>
                </mxCell>
                <mxCell id="7hrRSIiG_wMLSwiKtre1-8" style="edgeStyle=orthogonalEdgeStyle;rounded=0;orthogonalLoop=1;jettySize=auto;html=1;entryX=1;entryY=0.5;entryDx=0;entryDy=0;" parent="1" source="IyA25SHJrgqSfekTLc_w-4" target="IyA25SHJrgqSfekTLc_w-3" edge="1">
                    <mxGeometry relative="1" as="geometry"/>
                </mxCell>
                <mxCell id="IyA25SHJrgqSfekTLc_w-4" value="&lt;div&gt;Active&lt;/div&gt;&lt;div&gt;Relay&lt;br&gt;&lt;/div&gt;" style="ellipse;whiteSpace=wrap;html=1;aspect=fixed;" parent="1" vertex="1">
                    <mxGeometry x="560" y="445" width="80" height="80" as="geometry"/>
                </mxCell>
                <mxCell id="IyA25SHJrgqSfekTLc_w-11" value="&lt;div&gt;Destination&lt;/div&gt;&lt;div&gt;Server&lt;br&gt;&lt;/div&gt;" style="ellipse;whiteSpace=wrap;html=1;aspect=fixed;" parent="1" vertex="1">
                    <mxGeometry x="170" y="445" width="80" height="80" as="geometry"/>
                </mxCell>
                <mxCell id="IyA25SHJrgqSfekTLc_w-14" value="&lt;div&gt;&lt;br&gt;&lt;/div&gt;&lt;div&gt;&lt;br&gt;&lt;/div&gt;&lt;div&gt;&lt;br&gt;&lt;/div&gt;&lt;div&gt;&lt;br&gt;&lt;/div&gt;&lt;div&gt;&lt;br&gt;&lt;/div&gt;&lt;div&gt;&lt;br&gt;&lt;/div&gt;&lt;div&gt;Client&lt;br&gt;&lt;/div&gt;" style="rounded=1;whiteSpace=wrap;html=1;" parent="1" vertex="1">
                    <mxGeometry x="400" y="150" width="260" height="120" as="geometry"/>
                </mxCell>
                <mxCell id="IyA25SHJrgqSfekTLc_w-15" style="edgeStyle=orthogonalEdgeStyle;rounded=0;orthogonalLoop=1;jettySize=auto;html=1;entryX=0;entryY=0.5;entryDx=0;entryDy=0;" parent="1" source="IyA25SHJrgqSfekTLc_w-16" target="IyA25SHJrgqSfekTLc_w-18" edge="1">
                    <mxGeometry relative="1" as="geometry"/>
                </mxCell>
                <mxCell id="IyA25SHJrgqSfekTLc_w-16" value="&lt;div&gt;Proxy&lt;/div&gt;&lt;div&gt;User&lt;br&gt;&lt;/div&gt;" style="ellipse;whiteSpace=wrap;html=1;aspect=fixed;" parent="1" vertex="1">
                    <mxGeometry x="420" y="165" width="80" height="80" as="geometry"/>
                </mxCell>
                <mxCell id="IyA25SHJrgqSfekTLc_w-18" value="&lt;div&gt;Passive&lt;/div&gt;&lt;div&gt;Relay&lt;/div&gt;&lt;div&gt;(Proxy)&lt;br&gt;&lt;/div&gt;" style="ellipse;whiteSpace=wrap;html=1;aspect=fixed;" parent="1" vertex="1">
                    <mxGeometry x="560" y="165" width="80" height="80" as="geometry"/>
                </mxCell>
                <mxCell id="IyA25SHJrgqSfekTLc_w-32" value="&lt;div&gt;Internet&lt;/div&gt;" style="ellipse;shape=cloud;whiteSpace=wrap;html=1;" parent="1" vertex="1">
                    <mxGeometry x="270" y="445" width="120" height="80" as="geometry"/>
                </mxCell>
                <mxCell id="7hrRSIiG_wMLSwiKtre1-9" style="edgeStyle=orthogonalEdgeStyle;rounded=0;orthogonalLoop=1;jettySize=auto;html=1;entryX=0.5;entryY=1;entryDx=0;entryDy=0;" parent="1" source="IyA25SHJrgqSfekTLc_w-4" target="IyA25SHJrgqSfekTLc_w-18" edge="1">
                    <mxGeometry relative="1" as="geometry"/>
                </mxCell>
                <mxCell id="IyA25SHJrgqSfekTLc_w-19" value="&lt;div&gt;Internet&lt;/div&gt;" style="ellipse;shape=cloud;whiteSpace=wrap;html=1;" parent="1" vertex="1">
                    <mxGeometry x="540" y="310" width="120" height="80" as="geometry"/>
                </mxCell>
            </root>
        </mxGraphModel>
    </diagram>
</mxfile>